#!OML:ASF E:/inclinewalkrobotboard/Project1/Captureday1/Session1/subject1.ASF
:FULLY-SPECIFIED
:DEGREES
163
root 0 0 0 1.31389011479602 -3.853655842265165 1.8326503482662324
lowerback 12.169265580727798 0.8576626315702163 -0.05989196260629526
upperback -4.386159105632886 1.0949758590300809 -0.568398294322703
thorax -11.618941046288505 0.49750995775819623 -0.8203029626613871
lowerneck -6.010459718135922 1.5942603356822465 4.463854612740131
upperneck 18.38873148461012 3.09953620098182 -8.197307488229717
head 6.743737224097075 1.1345126568909385 -3.1432297942605283
rclavicle 1.9322540504599507E-15 -4.0326018322641737E-16
rhumerus 21.2531604304683 15.771662821438026 -47.6377017213846
rradius 73.64692593794015
rwrist 26.82278011110766
rhand -34.66062318911874 -57.66374810314418
rfingers 7.125020000000014
rthumb -7.801511140527584 -87.60790454900314
lclavicle -4.37653477280246E-16 -1.0202153879615671E-15
lhumerus 22.12455865164739 -12.529305753664458 43.863991372934635
lradius 71.11786425850512
lwrist -23.56072523864301
lhand -44.6216318707289 -71.13319099508445
lfingers 7.125020000000031
lthumb -17.401137763675692 -41.83515952848174
rfemur -25.231216861990788 -2.2180941005137234 17.200910226282396
rtibia 54.19623967055671
rfoot -29.698908426971702 -16.76723427698991
rtoes -18.43298480524874
lfemur -26.48881503737221 2.2908096222853342 -17.627585629762144
ltibia 53.32993934535946
lfoot -32.60034111409147 -2.613472862628988
ltoes -21.018472611443613
164
root 0 0 0 1.3138406466569603 -3.853445985922538 1.832608249635264
lowerback 12.169247387170083 0.8576416838613531 -0.059878638863596234
upperback -4.386188908494683 1.0949503720504778 -0.5683940463918172
thorax -11.618966769939586 0.4974963953149102 -0.8203044999386113
lowerneck -6.0105208083807575 1.5942985455341414 4.4638962855354904
upperneck 18.388836712548187 3.099582947688363 -8.197340307111448
head 6.743778613072437 1.1345312909911627 -3.1432429806385906
rclavicle 1.9321080192387624E-15 -4.0313763100639444E-16
rhumerus 21.253183712001366 15.771629516691418 -47.63761773637973
rradius 73.64696256677016
rwrist 26.822829678228025
rhand -34.66074516098848 -57.66393132762788
rfingers 7.125020000000014
rthumb -7.80162876985991 -87.60809069609438
lclavicle -4.37270784798012E-16 -1.0195680554227573E-15
lhumerus 22.124609012755265 -12.529350476572679 43.86398848111187
lradius 71.1179175640323
lwrist -23.560703473531206
lhand -44.621654805626825 -71.13327696202275
lfingers 7.125020000000031
lthumb -17.40116400419122 -41.83526576727719
rfemur -25.231138807943346 -2.218021822990438 17.200911109560664
rtibia 54.196036011477744
rfoot -29.698928507364258 -16.767247137637575
rtoes -18.433076657228067
lfemur -26.48841452568388 2.2908359030675967 -17.627325981919867
ltibia 53.330034723660724
lfoot -32.59970698253192 -2.614043891589238
ltoes -21.019925001863186
165
root 0 0 0 1.3136487349916517 -3.855774122341345 1.8329335743569257
lowerback 12.169090493785605 0.8579248360286943 -0.060199682687088085
upperback -4.385620332566861 1.0952662744531212 -0.5682630383551733
thorax -11.61820503898236 0.49768684942241936 -0.8200323913412788
lowerneck -6.0090748403034775 1.5936173725255542 4.46335751778765
upperneck 18.38725983085826 3.0987891538843906 -8.197015101288981
head 6.743084782141702 1.134182046307041 -3.1431484651917003
rclavicle 1.9194665378080713E-15 -3.972076214704223E-16
rhumerus 21.252531115503018 15.771357250706176 -47.638670890933184
rradius 73.6459288906174
rwrist 26.82217255240953
rhand -34.65998527653512 -57.6621941288172
rfingers 7.125020000000014
rthumb -7.800617987801207 -87.6061870004079
lclavicle -4.4291781346408807E-16 -1.0185924357334586E-15
lhumerus 22.126266307041128 -12.52788182772642 43.86368612720329
lradius 71.1187927610617
lwrist -23.56090040236065
lhand -44.62181162168236 -71.13557333085137
lfingers 7.125020000000031
lthumb -17.401314026129377 -41.838562731774516
rfemur -25.232052977003946 -2.217156410354458 17.201727576819387
rtibia 54.193922206700776
rfoot -29.696179510346834 -16.768498643785968
rtoes -18.430602438088478
lfemur -26.49509237009819 2.291779534746795 -17.63134535580926
ltibia 53.329843131765074
lfoot -32.60000081395863 -2.6124272836416766
ltoes -21.006904587433453
166
root 0 0 0 1.3139446584105494 -3.8539440898975927 1.832651011687835
lowerback 12.169265284745967 0.857704490163536 -0.05984861226822069
upperback -4.386090955939814 1.0950392229372174 -0.5683881246103927
thorax -11.618859422744649 0.49754176898764857 -0.8203297984274176
lowerneck -6.010281880925206 1.5941623499981177 4.463803599893037
upperneck 18.388506626303034 3.099414981275868 -8.197259964062766
head 6.743641223511812 1.1344633242318758 -3.1432216987362693
rclavicle 1.932309204879549E-15 -4.034693360012102E-16
rhumerus 21.25329144113674 15.771827864331014 -47.637679877389196
rradius 73.64701294440154
rwrist 26.822782685202572
rhand -34.66051939704515 -57.663686021512746
rfingers 7.125020000000014
rthumb -7.80141683256112 -87.60788254854263
lclavicle -4.3601598212364434E-16 -1.01949458363576E-15
lhumerus 22.124257931053677 -12.52909341406888 43.86414415662375
lradius 71.11751865694505
lwrist -23.560653515033408
lhand -44.621617542095805 -71.13285261287581
lfingers 7.125020000000031
lthumb -17.40112946369216 -41.834848168510945
rfemur -25.231271577268863 -2.2181490185695347 17.200789467784713
rtibia 54.196367201101125
rfoot -29.699052740213965 -16.767251383234743
rtoes -18.4327026856473
lfemur -26.488855221100525 2.2908803053357762 -17.627693769668223
ltibia 53.329960269221814
lfoot -32.60034614686261 -2.612923754776498
ltoes -21.017224439315395
